<?xml version="1.0" encoding="UTF-8"?>
<svg width="30px" height="30px" viewBox="0 0 30 30" version="1.1" xmlns="http://www.w3.org/2000/svg" xmlns:xlink="http://www.w3.org/1999/xlink">
    <!-- Generator: Sketch 3.8.3 (29802) - http://www.bohemiancoding.com/sketch -->
    <title>tumblr</title>
    <desc>Created with Sketch.</desc>
    <defs></defs>
    <g id="Front" stroke="none" stroke-width="1" fill="none" fill-rule="evenodd">
        <g id="Desktop-v2" transform="translate(-912.000000, -1334.000000)">
            <g id="footer">
                <g id="tumblr" transform="translate(912.000000, 1334.000000)">
                    <rect id="Rectangle-path" fill="#FFFFFF" x="0" y="0" width="29.9823026" height="29.9823026"></rect>
                    <path d="M22.1363816,21.7149342 L22.1363816,25.3861184 C22.1296053,25.3889474 22.1223026,25.3917763 22.1155263,25.3946053 C21.6792763,25.5988816 21.2356579,25.78625 20.7847368,25.9567105 C19.7119079,26.3619079 18.6023684,26.5876974 17.4567105,26.6367763 C17.3556579,26.6407237 17.2546711,26.6475 17.1530921,26.6525658 C16.9313158,26.6525658 16.4583553,26.6469079 16.4431579,26.6463816 C16.0892763,26.6367763 15.7371711,26.6091447 15.3861184,26.5628289 C14.8099342,26.4860526 14.2472368,26.3546053 13.7020395,26.1502632 C12.8357237,25.8269079 12.0721711,25.3477632 11.4389474,24.6682237 C10.9479605,24.1411184 10.6189474,23.5338816 10.4891447,22.8205263 C10.3903947,22.2759211 10.3514474,21.7273684 10.3514474,21.1753947 C10.3492105,18.4376974 10.3503289,15.6373026 10.3503289,12.8996053 L7.84598684,12.8996053 L7.84598684,9.56085526 C8.12309211,9.45138158 8.40157895,9.35546053 8.67190789,9.23013158 C10.1014474,8.56585526 11.1471711,7.51335526 11.8108553,6.08440789 C12.1353947,5.38460526 12.3176316,4.64190789 12.4429605,3.88342105 C12.4734211,3.69940789 12.4976974,3.51434211 12.5248026,3.32980263 L15.8319737,3.32980263 L15.8330921,9.23809211 L21.3661184,9.23809211 L21.3661184,12.8996711 L15.8303289,12.8996711 C15.8303289,12.8996711 15.8336842,19.4135526 15.8388158,19.6307895 C15.8506579,20.1257237 15.8743421,20.6195395 15.95,21.11 C16.0318421,21.6371053 16.2953947,22.0457237 16.7395395,22.3380263 C17.1746711,22.6241447 17.6549342,22.7878289 18.1719079,22.8431579 C18.6860526,22.8984868 19.19625,22.8595395 19.7024342,22.7573684 C20.5860526,22.5795395 21.3875,22.2082237 22.1363816,21.7149342 L22.1363816,21.7149342 Z" id="Shape" fill="#000000"></path>
                </g>
            </g>
        </g>
    </g>
</svg>