<?xml version="1.0" encoding="UTF-8"?>
<svg width="30px" height="30px" viewBox="0 0 30 30" version="1.1" xmlns="http://www.w3.org/2000/svg" xmlns:xlink="http://www.w3.org/1999/xlink">
    <!-- Generator: Sketch 3.8.3 (29802) - http://www.bohemiancoding.com/sketch -->
    <title>twitter</title>
    <desc>Created with Sketch.</desc>
    <defs></defs>
    <g id="Front" stroke="none" stroke-width="1" fill="none" fill-rule="evenodd">
        <g id="Desktop-v2" transform="translate(-952.000000, -1334.000000)">
            <g id="footer">
                <g id="twitter" transform="translate(952.000000, 1334.000000)">
                    <rect id="Rectangle-path" fill="#FFFFFF" x="0" y="0" width="29.9823026" height="29.9823026"></rect>
                    <path d="M3.97217105,22.2251316 C5.96756579,23.4906579 8.33453947,24.2230263 10.8718421,24.2230263 C18.0000658,24.2230263 23.7784211,18.4440132 23.7784211,11.3164474 C23.7784211,11.1384868 23.7746711,10.9618421 23.7678289,10.7857237 C24.0256579,10.5828289 25.6202632,9.30473684 26.0111184,8.48309211 C26.0111184,8.48309211 24.7161842,9.02125 23.4488158,9.14802632 C23.4463158,9.14802632 23.4432237,9.14861842 23.4407237,9.14861842 C23.4407237,9.14861842 23.4432237,9.14736842 23.4475658,9.14427632 C23.5643421,9.06625 25.1969737,7.95486842 25.4180263,6.63065789 C25.4180263,6.63065789 24.5021053,7.11953947 23.2196711,7.54723684 C23.0073684,7.61776316 22.7851316,7.68710526 22.5559868,7.75138158 C21.7293421,6.86914474 20.5543421,6.31848684 19.2500658,6.31848684 C16.7482895,6.31848684 14.7210526,8.34513158 14.7210526,10.845 C14.7210526,11.1977632 14.7616447,11.5411184 14.8384211,11.8707895 C14.4888158,11.8564474 9.16493421,11.5579605 5.54309211,7.17190789 C5.54309211,7.17190789 3.37848684,10.1269737 6.83302632,13.1656579 C6.83302632,13.1656579 5.78289474,13.1238158 4.87690789,12.5825 C4.87690789,12.5825 4.54414474,16.1625 8.45631579,17.0778289 C8.45631579,17.0778289 7.68651316,17.3694079 6.45842105,17.1615132 C6.45842105,17.1615132 7.14519737,20.0541447 10.6209868,20.3244737 C10.6209868,20.3244737 7.8725,22.8073684 3.97092105,22.2248026 L3.97217105,22.2251316 L3.97217105,22.2251316 Z" id="Shape" fill="#000000"></path>
                </g>
            </g>
        </g>
    </g>
</svg>